
<svg width="17px" height="18px" viewBox="0 0 17 18" version="1.1" xmlns="http://www.w3.org/2000/svg" xmlns:xlink="http://www.w3.org/1999/xlink">
    <g id="Mockups" stroke="none" stroke-width="1" fill="none" fill-rule="evenodd">
        <g id="Medium-Devices:-Tablets---6-col" transform="translate(-736.000000, -15.000000)" fill="#FFFFFF">
            <g id="Group" transform="translate(736.000000, 15.000000)">
                <path d="M8.28557143,9 C9.51957143,9 10.5728571,8.56342857 11.4455714,7.69057143 C12.3185714,6.81771429 12.755,5.76442857 12.755,4.53057143 C12.755,3.29685714 12.3185714,2.24357143 11.4455714,1.37057143 C10.5727143,0.497714286 9.51928571,0.0612857143 8.28557143,0.0612857143 C7.05185714,0.0612857143 5.99842857,0.497714286 5.12557143,1.37057143 C4.25257143,2.24357143 3.81614286,3.29685714 3.81614286,4.53057143 C3.81614286,5.76442857 4.25257143,6.81771429 5.12557143,7.69057143 C5.99857143,8.56342857 7.05185714,9 8.28557143,9 L8.28557143,9 Z" id="Shape"></path>
                <path d="M16.4385714,13.7195714 C16.4112857,13.3277143 16.357,12.9048571 16.2755714,12.4508571 C16.1941429,11.9968571 16.0911429,11.576 15.967,11.188 C15.8428571,10.8001429 15.676,10.4218571 15.4664286,10.0532857 C15.257,9.68471429 15.0164286,9.37042857 14.7447143,9.11042857 C14.473,8.85042857 14.1414286,8.643 13.7497143,8.48785714 C13.3577143,8.33271429 12.9251429,8.255 12.4518571,8.255 C12.382,8.255 12.219,8.33842857 11.963,8.50528571 C11.707,8.67214286 11.418,8.85842857 11.096,9.064 C10.774,9.26942857 10.3548571,9.45585714 9.839,9.62242857 C9.323,9.78928571 8.80514286,9.87271429 8.28514286,9.87271429 C7.76528571,9.87271429 7.24742857,9.78928571 6.73142857,9.62242857 C6.21557143,9.45585714 5.79642857,9.26942857 5.47442857,9.064 C5.15242857,8.85842857 4.86342857,8.67214286 4.60742857,8.50528571 C4.35128571,8.33842857 4.18842857,8.255 4.11857143,8.255 C3.64528571,8.255 3.21271429,8.33271429 2.82085714,8.48785714 C2.429,8.643 2.09728571,8.85057143 1.82571429,9.11042857 C1.55414286,9.37042857 1.31357143,9.68471429 1.10414286,10.0532857 C0.894714286,10.4218571 0.727857143,10.8002857 0.603714286,11.188 C0.479571429,11.576 0.376714286,11.9968571 0.295285714,12.4508571 C0.213714286,12.9048571 0.159428571,13.3275714 0.132285714,13.7195714 C0.105142857,14.1115714 0.0915714286,14.513 0.0915714286,14.9242857 C0.0915714286,15.8552857 0.374857143,16.5905714 0.941285714,17.1298571 C1.50771429,17.669 2.26042857,17.9385714 3.19928571,17.9385714 L13.3718571,17.9385714 C14.3107143,17.9385714 15.0632857,17.669 15.6298571,17.1298571 C16.1964286,16.5905714 16.4795714,15.8554286 16.4795714,14.9242857 C16.4795714,14.513 16.466,14.1114286 16.4385714,13.7195714 L16.4385714,13.7195714 Z" id="Shape"></path>
            </g>
        </g>
    </g>
</svg>